<?xml version="1.0" encoding="UTF-8"?>

<svg xmlns="http://www.w3.org/2000/svg"
     viewBox="0 0 22200 33200"
     width="222mm"
     height="332mm"
     fill-rule="evenodd"
     clip-rule="evenodd">
 <defs>
  <style type="text/css">
   <![CDATA[
    .str0 {stroke:#2B2A29;stroke-width:25;stroke-linecap:round;stroke-linejoin:round;stroke-miterlimit:22.9256}
    .fil3 {fill:#2B2A29}
    .fil1 {fill:#0AACFC}
    .fil2 {fill:#FA3399}
    .fil0 {fill:#FF8141}
   ]]>
  </style>
 </defs>
 <g id="Logo">
  <metadata id="Pay My Buddy"/>
  <g id="_2060059364752">
   <g>
    <path class="fil0" d="M13055.12 5754.41l-6862.57 3962.1 0 -2167.05c65.12,-88.83 126.21,-181.97 182.54,-279.56 620.51,-1074.7 507.85,-2371.3 -182.54,-3311.25l0 -2166.31 6862.57 3962.07zm-9304.91 -1484.43c819.84,0 1484.46,664.62 1484.46,1484.46 0,819.85 -664.62,1484.47 -1484.46,1484.47 -819.85,0 -1484.47,-664.62 -1484.47,-1484.47 0,-819.84 664.62,-1484.46 1484.47,-1484.46z"/>
    <path class="fil1" d="M13055.12 13678.58l-1876.13 1083.17c-1159.16,-127.87 -2338.36,422.9 -2958.87,1497.6 -56.33,97.55 -106.37,196.97 -150.74,297.74l-1876.83 1083.6 0 -7924.18 6862.57 3962.07zm-924.49 4838.46c-409.91,710 -1317.81,953.29 -2027.82,543.35 -710.01,-409.91 -953.29,-1317.81 -543.35,-2027.82 409.9,-710.01 1317.81,-953.26 2027.82,-543.35 710,409.9 953.25,1317.81 543.35,2027.82z"/>
    <path class="fil2" d="M19917.68 9716.48l-6862.56 3962.1 0 -7924.17 1876.86 1083.59c250.2,571.59 678.35,1071.32 1260.14,1407.21 581.82,335.89 1228.62,456.78 1848.73,387.67l1876.83 1083.6zm-2210.07 -5580.65c819.84,0 1484.46,664.62 1484.46,1484.46 0,819.85 -664.62,1484.47 -1484.46,1484.47 -819.85,0 -1484.47,-664.62 -1484.47,-1484.47 0,-819.84 664.62,-1484.46 1484.47,-1484.46z"/>
   </g>
   <path class="fil3 str0" d="M15526.19 24693.48l112.41 323.09 1348.59 0 112.41 -323.09 -148.59 0c-125.54,0 -227.29,-101.75 -227.29,-227.29l0 -2698.44c0,-125.54 101.75,-227.29 227.29,-227.29l148.55 0 -117 -336.28 -1163.18 0 -1090.66 2533.33 -1136.99 -2533.33c-407.22,0 -814.48,0 -1221.7,0l-117.04 336.28 186.21 0c125.54,0 227.3,101.75 227.3,227.29l0 2698.44c0,125.54 -101.76,227.29 -227.3,227.29l-208.06 0 112.42 323.09 1120.19 0 112.41 -323.09 -208.06 0c-125.54,0 -227.29,-101.75 -227.29,-227.29l0 -2260.12 1146.99 2555.6 508.26 0c346.59,-800.82 726.6,-1678.79 1106.05,-2555.49l0 2260.01c0,125.54 -101.75,227.29 -227.3,227.29l-148.62 0zm-12468.77 1395.88l-112.41 323.08 148.59 0c125.54,0 227.29,101.76 227.29,227.3l0 2698.43c0,125.54 -101.75,227.3 -227.29,227.3l-148.55 0 117 336.28c649.34,0 1298.71,0 1948.05,0 673.83,0 1220.04,-406.34 1220.04,-1094.12 0,-545.68 -343.87,-899.46 -822.49,-1017.27 376.94,-136.03 632.36,-373.63 632.36,-787.73 0,-620.86 -581.08,-913.27 -1254.8,-913.27l-1727.79 0zm1085.08 3476.11l0 -1484.57 497.33 0c395.22,0 803.78,237.03 803.78,726.95 0,489.91 -408.74,757.62 -803.78,757.62l-497.33 0zm0 -1820.85l0 -1318.98 360.32 0c395.22,0 715.62,189.14 715.62,631.84 0,446.04 -320.54,687.14 -715.62,687.14l-360.32 0zm11800.2 2114.63c-150.78,65.51 -363.85,98.65 -626.61,98.65 -246.39,0 -373.1,-77.33 -435.78,-197.29 -191.65,125.36 -168.17,197.26 -665.82,197.26 -497.65,0 -1238.5,-442.45 -1238.5,-1418.19 0,-903.49 602.82,-1496.67 1468.44,-1496.67 144.14,0 269.75,18.21 379.23,52.05l0 -927.84c0,-125.54 -101.75,-227.29 -227.29,-227.29l-79.73 0 0 -174.92c150.78,-65.51 492.74,-154.73 755.51,-154.73 212.92,0 363.52,50.97 363.52,328.55 0,695.15 0,2823.06 0,3518.21 0,125.55 101.76,227.3 227.3,227.3l79.73 0 0 174.91zm-1119.04 -476.25l0 -1893.03c-75.1,-70.94 -171.52,-110.72 -294.49,-110.72 -436.9,0 -741.17,456.32 -741.17,1151.36 0,750.64 392.33,1091.01 660.42,1091.01 220.44,0 339.28,-94.87 375.24,-238.62zm-2110.54 476.25c-150.78,65.51 -363.85,98.65 -626.61,98.65 -246.39,0 -373.09,-77.33 -435.78,-197.29 -191.64,125.36 -417.88,197.26 -665.82,197.26 -747.35,0 -1238.5,-442.45 -1238.5,-1418.19 0,-903.49 602.82,-1496.67 1468.44,-1496.67 144.14,0 269.76,18.21 379.24,52.05l0 -927.84c0,-125.54 -101.76,-227.29 -227.3,-227.29l-79.73 0 0 -174.92c150.78,-65.51 492.74,-154.73 755.51,-154.73 212.93,0 363.53,50.97 363.53,328.55 0,695.15 0,2823.06 0,3518.21 0,125.55 101.75,227.3 227.29,227.3l79.73 0 0 174.91zm-1119.03 -476.25l0 -1893.03c-75.11,-70.94 -171.53,-110.72 -294.5,-110.72 -436.9,0 -741.17,456.32 -741.17,1151.36 0,750.64 392.33,1091.01 660.42,1091.01 220.45,0 339.28,-94.87 375.25,-238.62zm-3185.43 -182.33c0,207.63 -227.22,420.95 -495.42,420.95 -179.19,0 -328.94,-105.49 -328.94,-313.13l0 -1936.93c0,-277.55 -150.6,-328.55 -363.53,-328.55 -262.76,0 -604.72,89.22 -755.5,154.72l0 174.92 79.73 0c125.54,0 227.29,101.75 227.29,227.29l0 1714.02c0,402.95 297.25,643.94 652.94,643.94 472.91,0 817.2,-146.61 995.57,-336.17 33.64,195.81 148.42,336.17 480.28,336.17 262.77,0 475.84,-33.14 626.61,-98.65l0 -174.91 -79.72 0c-125.55,0 -227.3,-101.75 -227.3,-227.3 0,-695.15 0,-1390.33 0,-2085.48 0,-277.59 -150.6,-328.55 -363.53,-328.55 -262.76,0 -604.72,89.22 -755.5,154.72l0 174.92 79.73 0c125.54,0 227.29,101.75 227.29,227.29l0 1600.73zm9541.42 247.09l-717.07 -1739.29c-56.47,-137.04 33.32,-286.23 183.53,-286.23l126.42 0 -112.41 -323.08 -1348.62 0 -112.41 323.08 105.78 0c87.07,0 162.67,48.95 200.85,120.81l972.39 2358.7 573.81 0c-98.93,379.06 -415.38,806.22 -841.83,806.22 -161.93,0 -359.9,-66.14 -413.69,-231.07 -332.75,365.68 -92.32,937.02 452.37,937.02 729.98,0 1014.31,-687.99 1255.72,-1512.17l682.66 -2330.64c31.94,-86.89 115.41,-148.87 213.39,-148.87l174.14 0 -112.41 -323.08c-632.15,0 -488.05,0 -1120.2,0l-112.41 323.08 164.43 0c145.77,0 252.85,135.11 222.07,275.96l-436.51 1749.56zm-10145.93 -4473.69c-150.78,65.51 -363.85,98.65 -626.61,98.65 -257.01,0 -383.79,-84.14 -443.54,-213.04 -189.5,131.79 -448.06,213 -733.16,213 -581.12,0 -1052.19,-317.25 -1052.19,-805.72 0,-455.01 471.07,-773.05 1052.19,-773.05 261.28,0 500.29,68.23 684.28,181.06l0 -634.97c0,-277.77 -72,-502.94 -492.43,-502.94 -112.76,0 -220.94,25.55 -309.21,67.34 112.66,65.22 187.24,174.39 187.24,297.91 0,201.74 -198.99,365.26 -444.42,365.26 -245.44,0 -444.43,-163.52 -444.43,-365.26 0,-241.41 165.82,-550.26 734.51,-653.22 124.16,-22.48 267.56,-35.15 432.6,-35.15 363.42,0 1148.15,67.34 1148.15,874.3l0 1483.62c0,125.54 101.75,227.29 227.29,227.29l79.73 0 0 174.92zm-1119.03 -410.89l0 -559.76c-92.69,-104.97 -243.64,-173.26 -414.14,-173.26 -281.83,0 -510.32,206.54 -510.32,436.8 0,230.18 228.49,469.48 510.32,469.48 170.5,0 321.45,-68.33 414.14,-173.26zm3028.89 -0.6l-717.07 -1739.29c-56.47,-137.05 33.32,-286.23 183.53,-286.23l126.43 0 -112.42 -323.08 -1348.61 0 -112.42 323.08 105.78 0c87.07,0 162.67,48.95 200.86,120.81l972.38 2358.7 573.81 0c-98.93,379.05 -415.37,806.22 -841.83,806.22 -161.93,0 -359.89,-66.14 -413.68,-231.07 -332.75,365.68 -92.33,937.02 452.36,937.02 729.99,0 1014.32,-687.99 1255.73,-1512.17l682.65 -2330.64c31.94,-86.9 115.42,-148.87 213.39,-148.87l174.14 0 -112.41 -323.08c-632.15,0 -488.04,0 -1120.2,0l-112.41 323.08 164.44 0c145.76,0 252.84,135.1 222.07,275.96l-436.52 1749.56zm-6395.69 130.9l-112.42 323.09 -1348.58 0 -112.41 -323.09 148.59 0c125.54,0 227.29,-101.75 227.29,-227.29l0 -2698.44c0,-125.54 -101.75,-227.29 -227.29,-227.29l-148.56 0 117 -336.28c559.87,0 1119.71,0 1679.58,0 691.19,0 1344.66,336.28 1344.66,1224.21 0,887.92 -653.47,1224.2 -1344.66,1224.2l-599.12 0 0 813.6c0,125.54 101.75,227.29 227.29,227.29l148.63 0zm-375.92 -3153.02c0,591.95 0,1183.9 0,1775.85l176.15 0c486.32,0 946.06,-243.91 946.06,-887.92 0,-644.01 -459.74,-887.93 -946.06,-887.93l-176.15 0zm16101.12 3022.12l-717.07 -1739.29c-56.47,-137.05 33.32,-286.23 183.53,-286.23l126.42 0 -112.41 -323.08 -1348.62 0 -112.41 323.08 105.78 0c87.07,0 162.67,48.95 200.86,120.81l972.38 2358.7 573.81 0c-98.93,379.05 -415.37,806.22 -841.83,806.22 -161.93,0 -359.89,-66.14 -413.68,-231.07 -332.75,365.68 -92.33,937.02 452.36,937.02 729.99,0 1014.32,-687.99 1255.73,-1512.17l682.65 -2330.64c31.94,-86.9 115.41,-148.87 213.39,-148.87l174.14 0 -112.41 -323.08c-632.15,0 -488.05,0 -1120.2,0l-112.41 323.08 164.44 0c145.76,0 252.84,135.1 222.07,275.96l-436.52 1749.56z"/>
  </g>
 </g>
</svg>
